# xmcd
#
# Track frame offsets: 
#        150
#        18358
#        48435
#        72717
#        86151
#        115022
#        134801
#        157231
#        176807
#        195420
#        220736
#        230930
#        250892
#        267642
#        279471
#        310363
#
# Disc length: 4473 seconds
#
# Revision: 0
# Processed by: cddbd v1.5.2PL0 Copyright (c) Steve Scherf et al.
# Submitted via: ExactAudioCopy v1.0b3
#
DISCID=01117710
DTITLE=Various Artist - Svenska Skratt [CD 3)
DYEAR=2011
DGENRE=Comedy
TTITLE0=Hasse Alfredson and Tage Danielsson - På Jobbet
TTITLE1=Lena Nyman - Stadslollan
TTITLE2=Lena Nyman and Gösta Ekman - I Sportaffären
TTITLE3=Lena Nyman and Gösta Ekman - Vad Har Du I Fickan, Jan?
TTITLE4=Hasse Alfredson and Tage Danielsson - Aftonbladet Eller Expresse
TTITLE4=n
TTITLE5=Hasse Alfredson and Tage Danielsson - Robert Lind
TTITLE6=Hasse Alfredson - 2:15 För En Liter Mjölk!
TTITLE7=Fatima Ekman, Gösta Ekman, Hasse Alfredson - Det Är Stor Glädj
TTITLE7=e Att Höra Trampet Av Små Fötter
TTITLE8=Tage Danielsson - Elektricitetsvisan
TTITLE9=Hasse Alfredson, Tage Danielsson, Gunnar Svensson - På Banken
TTITLE10=Hasse Alfredson, Tage Danielsson, Fatima Ekman, Gösta Ekman /
TTITLE10=I Banken Efter Tre (Va I Helvete Har Dom För Sej)
TTITLE11=Tage Danielsson and Gösta Ekman - Bolla, Bolla
TTITLE12=Hasse Alfredson and Gösta Ekman - Hjärnor Som Brottas I Ett Lun
TTITLE12=chrum
TTITLE13=Monica Zetterlund - O Vad En Gumma Kan Gno
TTITLE14=Lena Nyman - Hasse Tellemars Samtalspartner
TTITLE15=Hasse Alfredson - Ringaren På Ny Kula
EXTD=
EXTT0=
EXTT1=
EXTT2=
EXTT3=
EXTT4=
EXTT5=
EXTT6=
EXTT7=
EXTT8=
EXTT9=
EXTT10=
EXTT11=
EXTT12=
EXTT13=
EXTT14=
EXTT15=
PLAYORDER=
